<?xml version="1.0" encoding="UTF-8" standalone="no"?>
<!-- Created with Inkscape (http://www.inkscape.org/) -->

<svg
   xmlns:dc="http://purl.org/dc/elements/1.1/"
   xmlns:cc="http://creativecommons.org/ns#"
   xmlns:rdf="http://www.w3.org/1999/02/22-rdf-syntax-ns#"
   xmlns:svg="http://www.w3.org/2000/svg"
   xmlns="http://www.w3.org/2000/svg"
   xmlns:sodipodi="http://sodipodi.sourceforge.net/DTD/sodipodi-0.dtd"
   xmlns:inkscape="http://www.inkscape.org/namespaces/inkscape"
   width="48"
   height="48"
   viewBox="0 0 48 48"
   id="svg2"
   version="1.1"
   inkscape:version="0.91 r13725"
   sodipodi:docname="logo.svg"
   inkscape:export-filename="/home/pandu/InkScape/muffin/logo.png"
   inkscape:export-xdpi="120"
   inkscape:export-ydpi="120">
  <defs
     id="defs4" />
  <sodipodi:namedview
     id="base"
     pagecolor="#ffffff"
     bordercolor="#666666"
     borderopacity="1.0"
     inkscape:pageopacity="0.0"
     inkscape:pageshadow="2"
     inkscape:zoom="8"
     inkscape:cx="9.931319"
     inkscape:cy="-2.3916639"
     inkscape:document-units="px"
     inkscape:current-layer="layer1"
     showgrid="false"
     inkscape:window-width="1855"
     inkscape:window-height="1056"
     inkscape:window-x="65"
     inkscape:window-y="24"
     inkscape:window-maximized="1"
     units="px"
     inkscape:snap-center="true"
     inkscape:snap-object-midpoints="true"
     inkscape:snap-page="false"
     inkscape:snap-intersection-paths="true"
     inkscape:snap-smooth-nodes="true"
     inkscape:object-nodes="true"
     inkscape:object-paths="true"
     inkscape:snap-midpoints="true"
     inkscape:snap-nodes="true"
     inkscape:snap-bbox="true" />
  <metadata
     id="metadata7">
    <rdf:RDF>
      <cc:Work
         rdf:about="">
        <dc:format>image/svg+xml</dc:format>
        <dc:type
           rdf:resource="http://purl.org/dc/dcmitype/StillImage" />
        <dc:title />
      </cc:Work>
    </rdf:RDF>
  </metadata>
  <g
     inkscape:label="Layer 1"
     inkscape:groupmode="layer"
     id="layer1"
     transform="translate(0,-1004.3622)">
    <circle
       style="fill:#add3db;fill-opacity:1;stroke-width:1;stroke-miterlimit:4;stroke-dasharray:none"
       id="path4179"
       cx="24"
       cy="1028.3622"
       r="23.857141" />
    <path
       sodipodi:type="spiral"
       style="fill:#784421;fill-rule:evenodd;stroke:#000000;stroke-width:0;stroke-linecap:butt;stroke-linejoin:miter;stroke-miterlimit:4;stroke-dasharray:none;stroke-opacity:1"
       id="path4206"
       sodipodi:cx="24"
       sodipodi:cy="1028.3622"
       sodipodi:expansion="0"
       sodipodi:revolution="0.5"
       sodipodi:radius="23.8571"
       sodipodi:argument="-17.278759"
       sodipodi:t0="0"
       d="m 23.999986,1052.2193 c -12.995737,0 -23.85709323,-10.8614 -23.85708553,-23.8571 7.69e-6,-12.9958 10.86137753,-23.8571 23.85711353,-23.8571"
       inkscape:transform-center-x="-3.7366376e-05"
       inkscape:transform-center-y="-9.9618402"
       transform="matrix(0,0.83511581,-0.83511581,0,882.80152,1008.3194)" />
    <path
       sodipodi:type="spiral"
       style="fill:#784421;fill-rule:evenodd;stroke:#000000;stroke-width:0;stroke-linecap:butt;stroke-linejoin:miter;stroke-miterlimit:4;stroke-dasharray:none;stroke-opacity:1"
       id="path4306"
       sodipodi:cx="7.9786391"
       sodipodi:cy="1028.3623"
       sodipodi:expansion="0"
       sodipodi:revolution="0.5"
       sodipodi:radius="3.7165172"
       sodipodi:argument="-0.047583103"
       sodipodi:t0="0"
       d="m 11.69095,1028.1855 c 0.0963,2.0222 -1.513318,3.7928 -3.5355342,3.8891 -2.0222161,0.096 -3.7927913,-1.5133 -3.8890873,-3.5355"
       transform="matrix(1.0659283,0.09313078,-0.06836338,1.1959632,69.846884,-202.50856)" />
    <path
       sodipodi:type="spiral"
       style="fill:#784421;fill-rule:evenodd;stroke:#000000;stroke-width:0;stroke-linecap:butt;stroke-linejoin:miter;stroke-miterlimit:4;stroke-dasharray:none;stroke-opacity:1"
       id="path4310"
       sodipodi:cx="40.021286"
       sodipodi:cy="1028.3623"
       sodipodi:expansion="0"
       sodipodi:revolution="0.5"
       sodipodi:radius="4.0927143"
       sodipodi:argument="-6.2831616"
       sodipodi:t0="0"
       d="m 44.114,1028.3624 c -5.2e-5,2.2294 -1.863377,4.0927 -4.092811,4.0926 -2.229434,0 -4.09267,-1.8634 -4.092617,-4.0928"
       transform="matrix(0.97671999,0,0,1.1296274,0.83641776,-133.8344)" />
    <circle
       r="1.192988"
       cy="1026.1412"
       cx="6.4429874"
       id="circle4258"
       style="fill:#402a12;fill-opacity:1;stroke-width:0.1;stroke-miterlimit:4;stroke-dasharray:none" />
    <circle
       style="fill:#402a12;fill-opacity:1;stroke-width:0.1;stroke-miterlimit:4;stroke-dasharray:none"
       id="circle4274"
       cx="41.682007"
       cy="1026.1412"
       r="1.192988" />
    <circle
       r="1.192988"
       cy="1022.1033"
       cx="23.878963"
       id="circle4276"
       style="fill:#402a12;fill-opacity:1;stroke-width:0.1;stroke-miterlimit:4;stroke-dasharray:none" />
    <circle
       style="fill:#402a12;fill-opacity:1;stroke-width:0.1;stroke-miterlimit:4;stroke-dasharray:none"
       id="circle4278"
       cx="24.0625"
       cy="1011.4583"
       r="1.192988" />
    <circle
       r="1.192988"
       cy="1017.882"
       cx="31.771034"
       id="circle4280"
       style="fill:#402a12;fill-opacity:1;stroke-width:0.1;stroke-miterlimit:4;stroke-dasharray:none" />
    <circle
       style="fill:#402a12;fill-opacity:1;stroke-width:0.1;stroke-miterlimit:4;stroke-dasharray:none"
       id="circle4282"
       cx="15.252747"
       cy="1017.3314"
       r="1.192988" />
    <circle
       r="1.192988"
       cy="1026.1412"
       cx="15.252747"
       id="circle4284"
       style="fill:#402a12;fill-opacity:1;stroke-width:0.1;stroke-miterlimit:4;stroke-dasharray:none" />
    <circle
       style="fill:#402a12;fill-opacity:1;stroke-width:0.1;stroke-miterlimit:4;stroke-dasharray:none"
       id="circle4286"
       cx="32.872253"
       cy="1026.1412"
       r="1.192988" />
    <path
       style="fill:none;fill-rule:evenodd;stroke:#000000;stroke-width:0.14894953;stroke-linecap:butt;stroke-linejoin:miter;stroke-miterlimit:4;stroke-dasharray:none;stroke-opacity:1;fill-opacity:1"
       d="m 18,1034.1862 0,13.2323"
       id="path4401" />
    <path
       style="fill:none;fill-rule:evenodd;stroke:#000000;stroke-width:0.14894953;stroke-linecap:butt;stroke-linejoin:miter;stroke-miterlimit:4;stroke-dasharray:none;stroke-opacity:1;fill-opacity:1"
       d="m 30,1034.2091 0,13.3739"
       id="path4399" />
    <path
       style="fill:#ffffff;fill-opacity:1;stroke-width:0.1;stroke-miterlimit:4;stroke-dasharray:none"
       d="m 22.715055,1047.9895 c -1.299241,-0.089 -2.769723,-0.2972 -3.835519,-0.5426 l -0.777374,-0.179 0,-6.577 c 0,-5.7873 -0.01592,-6.577 -0.132582,-6.577 -0.116655,0 -0.132583,0.7846 -0.132583,6.5315 l 0,6.5314 -0.536658,-0.167 c -0.835304,-0.26 -2.11781,-0.8173 -2.807167,-1.2199 -0.62458,-0.3648 -1.783738,-1.2445 -2.061147,-1.5642 -0.08023,-0.092 -0.887267,-2.833 -1.793423,-6.0901 -0.9061577,-3.2571 -1.6685247,-5.9917 -1.6941507,-6.0767 -0.03243,-0.1077 0.0023,-0.1547 0.114044,-0.1548 0.358106,-10e-5 1.2931317,-0.5438 1.7846947,-1.0377 0.573224,-0.5759 0.934572,-1.2342 1.089676,-1.9852 l 0.105869,-0.5125 11.901676,0 11.901677,0 0.09819,0.5925 c 0.210771,1.272 1.119638,2.5012 2.241846,3.0321 0.307297,0.1454 0.608441,0.2643 0.669208,0.2644 0.06077,0 0.110485,0.044 0.110485,0.097 0,0.053 -0.697667,2.7281 -1.55037,5.9441 l -1.550371,5.8473 -0.503418,0.4796 c -0.982671,0.9362 -2.76161,1.9344 -4.39812,2.4678 l -0.792361,0.2582 -0.02266,-6.6188 c -0.01986,-5.802 -0.03895,-6.6189 -0.15468,-6.6189 -0.115937,0 -0.132023,0.8115 -0.132023,6.6605 l 0,6.6606 -0.685009,0.1474 c -1.745618,0.3756 -4.44069,0.5455 -6.457748,0.4071 z"
       id="path4412"
       inkscape:connector-curvature="0" />
    <path
       transform="matrix(0.97671999,0,0,0.88529686,-7.1635822,117.4259)"
       d="m 44.114,1028.3624 c -5.2e-5,2.2294 -1.863377,4.0927 -4.092811,4.0926 -2.229434,0 -4.09267,-1.8634 -4.092617,-4.0928"
       sodipodi:t0="0"
       sodipodi:argument="-6.2831616"
       sodipodi:radius="4.0927143"
       sodipodi:revolution="0.5"
       sodipodi:expansion="0"
       sodipodi:cy="1028.3623"
       sodipodi:cx="40.021286"
       id="path4425"
       style="fill:#784421;fill-rule:evenodd;stroke:#000000;stroke-width:0;stroke-linecap:butt;stroke-linejoin:miter;stroke-miterlimit:4;stroke-dasharray:none;stroke-opacity:1"
       sodipodi:type="spiral" />
    <path
       sodipodi:type="spiral"
       style="fill:#784421;fill-rule:evenodd;stroke:#000000;stroke-width:0;stroke-linecap:butt;stroke-linejoin:miter;stroke-miterlimit:4;stroke-dasharray:none;stroke-opacity:1"
       id="path4427"
       sodipodi:cx="40.021286"
       sodipodi:cy="1028.3623"
       sodipodi:expansion="0"
       sodipodi:revolution="0.5"
       sodipodi:radius="4.0927143"
       sodipodi:argument="-6.2831616"
       sodipodi:t0="0"
       d="m 44.114,1028.3624 c -5.2e-5,2.2294 -1.863377,4.0927 -4.092811,4.0926 -2.229434,0 -4.09267,-1.8634 -4.092617,-4.0928"
       transform="matrix(0.97671999,0,0,0.88529686,-15.163582,117.4259)" />
    <path
       transform="matrix(0.97671999,0,0,0.97692081,-23.163582,23.203286)"
       d="m 44.114,1028.3624 c -5.2e-5,2.2294 -1.863377,4.0927 -4.092811,4.0926 -2.229434,0 -4.09267,-1.8634 -4.092617,-4.0928"
       sodipodi:t0="0"
       sodipodi:argument="-6.2831616"
       sodipodi:radius="4.0927143"
       sodipodi:revolution="0.5"
       sodipodi:expansion="0"
       sodipodi:cy="1028.3623"
       sodipodi:cx="40.021286"
       id="path4429"
       style="fill:#784421;fill-rule:evenodd;stroke:#000000;stroke-width:0;stroke-linecap:butt;stroke-linejoin:miter;stroke-miterlimit:4;stroke-dasharray:none;stroke-opacity:1"
       sodipodi:type="spiral" />
  </g>
</svg>
